<?xml version="1.0" standalone="no"?>
<!DOCTYPE svg PUBLIC "-//W3C//DTD SVG 20010904//EN"
 "http://www.w3.org/TR/2001/REC-SVG-20010904/DTD/svg10.dtd">
<svg version="1.0" xmlns="http://www.w3.org/2000/svg"
 width="112.000000pt" height="162.000000pt" viewBox="0 0 112.000000 162.000000"
 preserveAspectRatio="xMidYMid meet">

<g transform="translate(0.000000,162.000000) scale(0.100000,-0.100000)"
fill="#000000" stroke="none">
<path d="M890 1511 c-335 -251 -583 -519 -799 -863 -34 -53 -61 -102 -61 -107
0 -7 52 -11 154 -11 l154 0 28 48 c45 79 173 261 252 362 89 112 314 344 425
438 l77 65 0 89 0 88 -42 0 c-39 0 -57 -10 -188 -109z"/>
<path d="M1020 1318 c-165 -147 -294 -289 -436 -480 -67 -90 -178 -262 -191
-294 -4 -12 16 -14 115 -14 l121 0 28 50 28 50 108 0 107 0 0 -57 c0 -32 3
-75 6 -96 l7 -37 95 0 95 0 -6 43 c-3 23 -13 146 -23 273 l-17 232 32 44 32
44 -3 163 -3 164 -95 -85z m-132 -475 c-3 -35 -6 -38 -35 -41 -40 -4 -40 0 -7
44 34 44 46 43 42 -3z"/>
</g>
</svg>
